# xmcd CD database file
#
# Track frame offsets:
#	150
#	14195
#	30452
#	51602
#	72877
#	92535
#	108122
#	128223
#	144627
#	164126
#	182322
#	197045
#	216097
#	230498
#	247790
#	270038
#
# Disc length: 3815 seconds
#
# Revision: 0
# Processed by: cddbd v1.5.1PL0 Copyright (c) Steve Scherf et al.
# Submitted via: CDex 1.50
#
DISCID=dc0ee510
DTITLE=Various Artist - Best Jazz Collection
DYEAR=1900
DGENRE=Jazz
TTITLE0=Don't Know Why - Dianna Figi
TTITLE1=Don't it make My Brown Eyes Blue /Norah Morrison
TTITLE2=They Can't Take That Away From Me - Gerry Paule
TTITLE3=And All That Jazz - Shelly Jones
TTITLE4=You Are the Sunshine of My Life /Jessica Figi
TTITLE5=Smoke Gets In Your Eyes - Jenny Routh
TTITLE6=Summertime - Astrud Dearie
TTITLE7='O Sole Mio - Queeny Yean
TTITLE8=Brother Can You Spare A Kime - Bob Morton
TTITLE9=Agua De Beber - Nicole P.
TTITLE10=Come Away With Me - Vera Jones
TTITLE11=Les Vieux Amants - Ncncy Yassue
TTITLE12=It Had to Be You - Shelly Crowl
TTITLE13=Corcovado - Filapinia
TTITLE14=The Sentimental Touch - Sophiea Roseman
TTITLE15=Dream A Little Dream - Vikki O'day
EXTD=
EXTT0=
EXTT1=
EXTT2=
EXTT3=
EXTT4=
EXTT5=
EXTT6=
EXTT7=
EXTT8=
EXTT9=
EXTT10=
EXTT11=
EXTT12=
EXTT13=
EXTT14=
EXTT15=
PLAYORDER=
